<svg width="43" height="43" viewBox="0 0 43 43" fill="none" xmlns="http://www.w3.org/2000/svg">
<g id="&#240;&#159;&#166;&#134; icon &#34;library books&#34;">
<path id="Vector" d="M4.25 8.5H0V38.25C0 40.5875 1.9125 42.5 4.25 42.5H34V38.25H4.25V8.5ZM38.25 0H12.75C10.4125 0 8.5 1.9125 8.5 4.25V29.75C8.5 32.0875 10.4125 34 12.75 34H38.25C40.5875 34 42.5 32.0875 42.5 29.75V4.25C42.5 1.9125 40.5875 0 38.25 0ZM38.25 29.75H12.75V4.25H38.25V29.75ZM17 14.875H34V19.125H17V14.875ZM17 21.25H25.5V25.5H17V21.25ZM17 8.5H34V12.75H17V8.5Z" fill="black"/>
</g>
</svg>
