<svg width="99" height="99" viewBox="0 0 99 99" fill="none" xmlns="http://www.w3.org/2000/svg">
<path d="M8.50781 37.125H90.4922C91.7684 37.125 92.8125 38.1691 92.8125 39.4453V89.7188C92.8125 94.8428 88.6553 99 83.5312 99H15.4688C10.3447 99 6.1875 94.8428 6.1875 89.7188V39.4453C6.1875 38.1691 7.23164 37.125 8.50781 37.125ZM92.8125 28.6172V21.6562C92.8125 16.5322 88.6553 12.375 83.5312 12.375H74.25V2.32031C74.25 1.04414 73.2059 0 71.9297 0H64.1953C62.9191 0 61.875 1.04414 61.875 2.32031V12.375H37.125V2.32031C37.125 1.04414 36.0809 0 34.8047 0H27.0703C25.7941 0 24.75 1.04414 24.75 2.32031V12.375H15.4688C10.3447 12.375 6.1875 16.5322 6.1875 21.6562V28.6172C6.1875 29.8934 7.23164 30.9375 8.50781 30.9375H90.4922C91.7684 30.9375 92.8125 29.8934 92.8125 28.6172Z" fill="#494CD4"/>
</svg>
