<svg width="30" height="30" viewBox="0 0 30 30" fill="none" xmlns="http://www.w3.org/2000/svg">
<g clip-path="url(#clip0_1294_3959)">
<path d="M2.5 7.5H0V13.75H0.0125L0 25C0 26.375 1.125 27.5 2.5 27.5H25V25H2.5V7.5ZM8.75 18.75H26.25L21.875 13.125L18.75 16.8875L14.375 11.25L8.75 18.75ZM27.5 5H17.5L15 2.5H7.5C6.125 2.5 5.0125 3.625 5.0125 5L5 20C5 21.375 6.125 22.5 7.5 22.5H27.5C28.875 22.5 30 21.375 30 20V7.5C30 6.125 28.875 5 27.5 5ZM27.5 20H7.5V5H13.9625L15.725 6.7625L16.4625 7.5H27.5V20Z" fill="#FD605D"/>
</g>
<defs>
<clipPath id="clip0_1294_3959">
<rect width="30" height="30" fill="white"/>
</clipPath>
</defs>
</svg>
