<svg width="45" height="44" viewBox="0 0 45 44" fill="none" xmlns="http://www.w3.org/2000/svg">
<path d="M30.3333 4.33333C30.3333 1.92833 32.2617 0 34.6667 0C37.0717 0 39 1.92833 39 4.33333C39 6.73833 37.0717 8.66667 34.6667 8.66667C32.2617 8.66667 30.3333 6.73833 30.3333 4.33333ZM39 43.3333V30.3333H44.4167L38.9133 13.8017C38.3067 12.025 36.66 10.8333 34.7967 10.8333H34.5367C32.6733 10.8333 31.005 12.025 30.42 13.8017L28.5567 19.3917C30.8967 20.6917 32.5 23.14 32.5 26V43.3333H39ZM22.75 20.5833C24.5483 20.5833 26 19.1317 26 17.3333C26 15.535 24.5483 14.0833 22.75 14.0833C20.9517 14.0833 19.5 15.535 19.5 17.3333C19.5 19.1317 20.9517 20.5833 22.75 20.5833ZM7.58333 8.66667C9.98833 8.66667 11.9167 6.73833 11.9167 4.33333C11.9167 1.92833 9.98833 0 7.58333 0C5.17833 0 3.25 1.92833 3.25 4.33333C3.25 6.73833 5.17833 8.66667 7.58333 8.66667ZM11.9167 43.3333V28.1667H15.1667V15.1667C15.1667 12.7833 13.2167 10.8333 10.8333 10.8333H4.33333C1.95 10.8333 0 12.7833 0 15.1667V28.1667H3.25V43.3333H11.9167ZM26 43.3333V34.6667H28.1667V26C28.1667 24.2233 26.6933 22.75 24.9167 22.75H20.5833C18.8067 22.75 17.3333 24.2233 17.3333 26V34.6667H19.5V43.3333H26Z" fill="black"/>
</svg>
