<svg width="45" height="45" viewBox="0 0 45 45" fill="none" xmlns="http://www.w3.org/2000/svg">
<g id="&#240;&#159;&#166;&#134; icon &#34;notifications active&#34;">
<path id="Vector" d="M36.077 30.6873V19.3216C36.077 12.3431 32.3491 6.50115 25.8479 4.95542V3.40969C25.8479 1.523 24.3022 0 22.4155 0C20.5288 0 19.0285 1.523 19.0285 3.40969V4.95542C12.5046 6.50115 8.79945 12.3204 8.79945 19.3216V30.6873L5.84438 33.6196C4.41231 35.0517 5.41248 37.5066 7.43557 37.5066H37.3727C39.3958 37.5066 40.4187 35.0517 38.9866 33.6196L36.077 30.6873ZM22.4155 44.326C24.9159 44.326 26.9618 42.2802 26.9618 39.7798H17.8692C17.8692 42.2802 19.8923 44.326 22.4155 44.326ZM10.5498 5.06908C11.5045 4.20529 11.5272 2.72776 10.618 1.8185C9.75416 0.954714 8.34482 0.931983 7.4583 1.77304C3.57125 5.31912 0.888955 10.1382 0.0251657 15.5482C-0.179416 16.9348 0.888955 18.185 2.2983 18.185C3.3894 18.185 4.34411 17.3894 4.52596 16.2983C5.2079 11.8885 7.39011 7.95595 10.5498 5.06908ZM37.4409 1.77304C36.5316 0.931983 35.1223 0.954714 34.2585 1.8185C33.3492 2.72776 33.3947 4.18256 34.3267 5.04635C37.4636 7.93322 39.6685 11.8657 40.3505 16.2756C40.5096 17.3667 41.4643 18.1623 42.5782 18.1623C43.9648 18.1623 45.0559 16.9121 44.8286 15.5255C43.9648 10.1382 41.3052 5.34186 37.4409 1.77304Z" fill="black"/>
</g>
</svg>
