<svg width="38" height="38" viewBox="0 0 38 38" fill="none" xmlns="http://www.w3.org/2000/svg">
<circle cx="19" cy="19" r="19" fill="black"/>
<path d="M28.0484 29.64H9.19186C8.73234 29.64 8.35999 29.2738 8.35999 28.822V26.796C8.36182 26.1879 8.64063 25.6126 9.11984 25.2283C10.9732 23.7614 12.9811 22.4946 15.1093 21.4492C15.1738 21.4179 15.2145 21.3534 15.2145 21.2828V19.3223C14.9238 18.8383 14.7255 18.3059 14.6294 17.7518C14.4075 17.7354 14.1109 17.4272 13.7975 16.3256C13.365 14.8206 13.8252 14.5997 14.2136 14.635C14.1397 14.4299 14.083 14.2194 14.0443 14.0053C13.8913 13.3531 13.8913 12.6752 14.0443 12.023C14.2392 11.2534 14.6461 10.5514 15.2202 9.99441C15.5445 9.6557 15.9105 9.35791 16.3098 9.10826C16.6342 8.87841 16.9898 8.69466 17.3663 8.56287C17.6769 8.45896 18.001 8.39846 18.3286 8.38295C19.1675 8.29298 20.0138 8.46886 20.7439 8.8847C21.2279 9.13097 21.6343 9.50249 21.9198 9.95906C21.9198 9.95906 23.861 10.0954 23.2121 13.9918C23.173 14.2023 23.1162 14.4092 23.0428 14.6108C23.4337 14.5752 23.8914 14.7961 23.4589 16.3013C23.1428 17.3919 22.8489 17.7084 22.627 17.7275C22.5309 18.2756 22.3324 18.8014 22.0417 19.2786V21.2582C22.0417 21.3289 22.0826 21.3934 22.1471 21.4247C24.2736 22.4784 26.2788 23.7535 28.1284 25.2282C28.6046 25.6144 28.8802 26.1892 28.88 26.796V28.8166C28.8813 29.0345 28.7944 29.2439 28.6382 29.3984C28.482 29.5531 28.2701 29.64 28.0484 29.64Z" fill="white"/>
</svg>
